<svg xmlns="http://www.w3.org/2000/svg" xmlns:xlink="http://www.w3.org/1999/xlink" width="500" zoomAndPan="magnify" viewBox="0 0 375 374.999991" height="500" preserveAspectRatio="xMidYMid meet" version="1.0"><defs><clipPath id="9e19761a23"><path d="M 113 129 L 262.5 129 L 262.5 251.25 L 113 251.25 Z M 113 129 " clip-rule="nonzero"/></clipPath></defs><path fill="#231f20" d="M 142.078125 151.742188 C 142.300781 151.902344 142.554688 151.964844 142.808594 151.964844 C 143.1875 151.964844 143.535156 151.835938 143.691406 151.773438 L 144.136719 151.585938 C 144.738281 151.363281 145.335938 151.109375 145.9375 150.636719 C 146.570312 150.128906 147.203125 149.464844 147.742188 148.675781 C 148.152344 148.074219 148.625 147.3125 148.722656 146.460938 C 148.816406 145.574219 148.53125 144.6875 147.929688 144.183594 C 147.425781 143.738281 146.761719 143.582031 146.035156 143.773438 C 144.640625 144.152344 143.660156 145.480469 142.902344 146.714844 C 142.492188 147.347656 142.175781 148.042969 141.953125 148.769531 L 141.859375 149.054688 C 141.699219 149.464844 141.542969 149.941406 141.511719 150.476562 C 141.511719 151.203125 141.828125 151.550781 142.078125 151.742188 Z M 143.375 149.625 L 143.503906 149.308594 C 143.691406 148.707031 143.976562 148.136719 144.292969 147.597656 C 144.671875 146.996094 145.527344 145.605469 146.476562 145.351562 C 146.539062 145.320312 146.601562 145.320312 146.664062 145.320312 C 146.792969 145.320312 146.855469 145.386719 146.886719 145.417969 C 147.078125 145.574219 147.171875 145.921875 147.109375 146.269531 C 147.046875 146.777344 146.730469 147.28125 146.414062 147.757812 C 145.96875 148.421875 145.464844 148.960938 144.925781 149.371094 C 144.515625 149.6875 144.070312 149.875 143.535156 150.066406 L 143.1875 150.191406 C 143.25 150.003906 143.3125 149.8125 143.375 149.625 Z M 143.375 149.625 " fill-opacity="1" fill-rule="nonzero"/><path fill="#231f20" d="M 221.691406 145.667969 C 221.820312 146.300781 221.945312 146.933594 222.324219 147.597656 C 222.734375 148.328125 223.273438 149.023438 223.96875 149.6875 C 224.507812 150.191406 225.171875 150.761719 225.992188 151.015625 C 226.277344 151.109375 226.5625 151.140625 226.816406 151.140625 C 227.417969 151.140625 227.953125 150.953125 228.367188 150.605469 C 228.871094 150.160156 229.125 149.527344 229.0625 148.800781 C 228.933594 147.378906 227.765625 146.207031 226.65625 145.226562 C 226.089844 144.71875 225.457031 144.308594 224.792969 143.960938 L 224.539062 143.804688 C 224.160156 143.582031 223.714844 143.328125 223.179688 143.234375 C 222.484375 143.109375 222.070312 143.359375 221.851562 143.582031 C 221.34375 144.121094 221.535156 144.910156 221.597656 145.164062 Z M 223.746094 145.257812 L 224.03125 145.417969 C 224.601562 145.699219 225.109375 146.082031 225.582031 146.492188 C 226.121094 146.933594 227.355469 148.011719 227.449219 148.992188 C 227.480469 149.273438 227.386719 149.339844 227.320312 149.371094 C 227.132812 149.527344 226.785156 149.558594 226.4375 149.464844 C 225.960938 149.339844 225.488281 148.925781 225.078125 148.546875 C 224.507812 147.976562 224.03125 147.410156 223.714844 146.839844 C 223.464844 146.367188 223.367188 145.921875 223.242188 145.351562 L 223.148438 144.972656 C 223.367188 145.035156 223.558594 145.164062 223.746094 145.257812 Z M 223.746094 145.257812 " fill-opacity="1" fill-rule="nonzero"/><path fill="#231f20" d="M 180.195312 140.765625 L 180.636719 140.925781 C 181.238281 141.144531 181.839844 141.367188 182.628906 141.398438 C 182.722656 141.398438 182.851562 141.398438 182.945312 141.398438 C 183.671875 141.398438 184.464844 141.304688 185.285156 141.082031 C 186.011719 140.894531 186.835938 140.640625 187.46875 140.039062 C 188.132812 139.4375 188.480469 138.585938 188.386719 137.792969 C 188.289062 137.128906 187.878906 136.589844 187.214844 136.242188 C 185.917969 135.609375 184.335938 135.992188 182.914062 136.433594 C 182.1875 136.65625 181.492188 136.972656 180.859375 137.351562 L 180.605469 137.507812 C 180.226562 137.730469 179.78125 137.984375 179.402344 138.363281 C 178.929688 138.902344 178.929688 139.375 179.023438 139.660156 C 179.179688 140.449219 179.941406 140.703125 180.195312 140.765625 Z M 181.363281 138.964844 L 181.648438 138.804688 C 182.1875 138.488281 182.789062 138.238281 183.386719 138.046875 C 184.050781 137.824219 185.601562 137.351562 186.488281 137.761719 C 186.742188 137.886719 186.742188 138.015625 186.773438 138.078125 C 186.804688 138.300781 186.644531 138.648438 186.394531 138.902344 C 186.011719 139.25 185.445312 139.40625 184.90625 139.566406 C 184.148438 139.753906 183.386719 139.847656 182.722656 139.816406 C 182.1875 139.785156 181.773438 139.628906 181.207031 139.4375 L 180.859375 139.3125 C 181.015625 139.183594 181.207031 139.058594 181.363281 138.964844 Z M 181.363281 138.964844 " fill-opacity="1" fill-rule="nonzero"/><path fill="#231f20" d="M 163.839844 152.914062 C 163.839844 153.355469 163.871094 153.863281 164.0625 154.367188 C 164.316406 155.03125 164.726562 155.253906 165.042969 155.316406 C 165.136719 155.347656 165.199219 155.347656 165.296875 155.347656 C 165.898438 155.347656 166.371094 154.90625 166.53125 154.746094 L 166.878906 154.429688 C 167.351562 153.988281 167.828125 153.546875 168.207031 152.882812 C 168.617188 152.152344 168.933594 151.332031 169.15625 150.382812 C 169.34375 149.625 169.472656 148.800781 169.25 147.976562 C 169.027344 147.09375 168.425781 146.398438 167.667969 146.144531 C 167.035156 145.921875 166.339844 146.050781 165.769531 146.460938 C 164.632812 147.3125 164.21875 148.925781 163.96875 150.351562 C 163.839844 151.078125 163.777344 151.835938 163.839844 152.597656 Z M 165.550781 150.636719 C 165.675781 149.941406 165.960938 148.328125 166.71875 147.757812 C 166.84375 147.664062 166.941406 147.628906 167.003906 147.628906 C 167.066406 147.628906 167.097656 147.628906 167.097656 147.664062 C 167.320312 147.726562 167.542969 148.042969 167.636719 148.390625 C 167.761719 148.863281 167.667969 149.464844 167.542969 150.035156 C 167.351562 150.824219 167.097656 151.488281 166.78125 152.089844 C 166.53125 152.566406 166.179688 152.847656 165.738281 153.261719 L 165.453125 153.515625 C 165.421875 153.324219 165.421875 153.101562 165.421875 152.914062 L 165.421875 152.566406 C 165.421875 151.902344 165.453125 151.269531 165.550781 150.636719 Z M 165.550781 150.636719 " fill-opacity="1" fill-rule="nonzero"/><path fill="#231f20" d="M 184.464844 161.863281 C 183.863281 161.421875 183.199219 161.042969 182.503906 160.757812 L 182.21875 160.628906 C 181.804688 160.441406 181.332031 160.21875 180.792969 160.1875 C 180.097656 160.125 179.71875 160.410156 179.496094 160.660156 C 179.054688 161.230469 179.277344 161.992188 179.371094 162.242188 L 179.496094 162.71875 C 179.6875 163.320312 179.878906 163.953125 180.320312 164.585938 C 180.792969 165.28125 181.394531 165.914062 182.121094 166.511719 C 182.691406 166.988281 183.386719 167.492188 184.242188 167.652344 C 184.433594 167.683594 184.621094 167.714844 184.8125 167.714844 C 185.507812 167.714844 186.140625 167.492188 186.550781 167.050781 C 187.027344 166.578125 187.214844 165.914062 187.089844 165.183594 C 186.929688 163.792969 185.664062 162.71875 184.464844 161.863281 Z M 185.507812 165.914062 C 185.347656 166.070312 184.96875 166.164062 184.621094 166.070312 C 184.117188 165.976562 183.640625 165.628906 183.199219 165.25 C 182.566406 164.742188 182.058594 164.203125 181.710938 163.636719 C 181.425781 163.191406 181.269531 162.75 181.109375 162.210938 L 180.984375 161.832031 C 181.175781 161.894531 181.363281 161.992188 181.554688 162.054688 L 181.871094 162.179688 C 182.4375 162.433594 183.007812 162.75 183.515625 163.128906 C 184.082031 163.539062 185.414062 164.488281 185.570312 165.46875 C 185.632812 165.753906 185.539062 165.847656 185.507812 165.914062 Z M 185.507812 165.914062 " fill-opacity="1" fill-rule="nonzero"/><path fill="#231f20" d="M 211.445312 159.460938 L 211.570312 159.714844 C 211.792969 160.125 212.011719 160.566406 212.425781 160.914062 C 212.804688 161.261719 213.152344 161.359375 213.4375 161.359375 C 213.53125 161.359375 213.65625 161.328125 213.722656 161.328125 C 214.449219 161.136719 214.703125 160.378906 214.796875 160.125 L 214.953125 159.679688 C 215.175781 159.082031 215.398438 158.480469 215.429688 157.6875 C 215.460938 156.867188 215.367188 155.980469 215.144531 155.03125 C 214.953125 154.304688 214.703125 153.480469 214.132812 152.816406 C 213.53125 152.152344 212.675781 151.773438 211.917969 151.902344 C 211.253906 151.996094 210.683594 152.40625 210.367188 153.039062 C 209.734375 154.304688 210.082031 155.917969 210.496094 157.339844 C 210.746094 158.101562 211.0625 158.828125 211.445312 159.460938 Z M 211.855469 153.828125 C 211.980469 153.578125 212.109375 153.578125 212.171875 153.546875 C 212.203125 153.546875 212.203125 153.546875 212.234375 153.546875 C 212.457031 153.546875 212.773438 153.703125 212.960938 153.957031 C 213.308594 154.335938 213.46875 154.90625 213.59375 155.476562 C 213.785156 156.265625 213.847656 156.992188 213.816406 157.65625 C 213.785156 158.195312 213.625 158.605469 213.4375 159.144531 L 213.308594 159.492188 C 213.214844 159.332031 213.089844 159.144531 212.992188 158.953125 L 212.835938 158.667969 C 212.519531 158.132812 212.265625 157.53125 212.078125 156.929688 C 211.886719 156.265625 211.414062 154.683594 211.855469 153.828125 Z M 211.855469 153.828125 " fill-opacity="1" fill-rule="nonzero"/><path fill="#231f20" d="M 225.359375 163.128906 C 224.824219 163.507812 224.507812 164.140625 224.539062 164.867188 C 224.570312 166.292969 225.644531 167.558594 226.6875 168.601562 C 227.226562 169.140625 227.828125 169.613281 228.460938 169.992188 L 228.714844 170.152344 C 229.09375 170.402344 229.503906 170.6875 230.042969 170.816406 C 230.199219 170.847656 230.359375 170.878906 230.515625 170.878906 C 230.929688 170.878906 231.210938 170.71875 231.402344 170.5625 C 231.941406 170.054688 231.8125 169.265625 231.78125 169.011719 L 231.71875 168.539062 C 231.625 167.90625 231.558594 167.273438 231.210938 166.546875 C 230.863281 165.785156 230.359375 165.058594 229.726562 164.332031 C 229.21875 163.761719 228.617188 163.160156 227.796875 162.875 C 226.910156 162.589844 225.992188 162.6875 225.359375 163.128906 Z M 228.460938 165.4375 C 229 166.039062 229.410156 166.640625 229.695312 167.242188 C 229.914062 167.714844 229.980469 168.191406 230.074219 168.757812 L 230.136719 169.140625 C 229.980469 169.042969 229.789062 168.949219 229.597656 168.824219 L 229.316406 168.632812 C 228.777344 168.285156 228.269531 167.90625 227.828125 167.460938 C 227.320312 166.957031 226.183594 165.816406 226.152344 164.835938 C 226.152344 164.550781 226.246094 164.488281 226.308594 164.457031 C 226.40625 164.394531 226.5625 164.332031 226.753906 164.332031 C 226.910156 164.332031 227.070312 164.363281 227.226562 164.425781 C 227.667969 164.617188 228.082031 165.027344 228.460938 165.4375 Z M 228.460938 165.4375 " fill-opacity="1" fill-rule="nonzero"/><path fill="#231f20" d="M 152.550781 167.082031 L 153.023438 167.113281 C 153.339844 167.144531 153.6875 167.179688 154.035156 167.179688 C 154.351562 167.179688 154.699219 167.144531 155.078125 167.082031 C 155.902344 166.894531 156.722656 166.578125 157.546875 166.132812 C 158.210938 165.785156 158.9375 165.3125 159.414062 164.585938 C 159.917969 163.824219 160.011719 162.90625 159.730469 162.179688 C 159.476562 161.546875 158.9375 161.136719 158.210938 160.976562 C 156.820312 160.695312 155.332031 161.453125 154.097656 162.242188 C 153.464844 162.65625 152.867188 163.128906 152.328125 163.636719 L 152.105469 163.824219 C 151.789062 164.140625 151.410156 164.488281 151.15625 164.964844 C 150.839844 165.597656 150.96875 166.070312 151.09375 166.324219 C 151.472656 167.019531 152.296875 167.082031 152.550781 167.082031 Z M 153.246094 165.058594 L 153.496094 164.835938 C 153.941406 164.394531 154.445312 163.984375 154.984375 163.667969 C 155.585938 163.289062 156.945312 162.433594 157.925781 162.625 C 158.210938 162.6875 158.242188 162.8125 158.273438 162.84375 C 158.367188 163.066406 158.304688 163.414062 158.085938 163.730469 C 157.800781 164.140625 157.292969 164.457031 156.789062 164.742188 C 156.089844 165.121094 155.394531 165.40625 154.730469 165.53125 C 154.226562 165.660156 153.75 165.597656 153.179688 165.53125 L 152.800781 165.5 C 152.929688 165.34375 153.085938 165.183594 153.246094 165.058594 Z M 153.246094 165.058594 " fill-opacity="1" fill-rule="nonzero"/><path fill="#231f20" d="M 192.6875 153.039062 L 193.160156 153.199219 C 193.761719 153.386719 194.394531 153.609375 195.15625 153.609375 C 195.21875 153.609375 195.25 153.609375 195.3125 153.609375 C 196.101562 153.609375 196.925781 153.480469 197.8125 153.261719 C 198.539062 153.070312 199.359375 152.785156 199.960938 152.183594 C 200.625 151.550781 200.941406 150.699219 200.816406 149.941406 C 200.691406 149.273438 200.277344 148.738281 199.613281 148.421875 C 198.316406 147.820312 196.703125 148.230469 195.3125 148.707031 C 194.585938 148.960938 193.921875 149.273438 193.257812 149.65625 L 193.003906 149.8125 C 192.625 150.035156 192.179688 150.289062 191.832031 150.699219 C 191.390625 151.238281 191.390625 151.710938 191.484375 152.027344 C 191.675781 152.722656 192.433594 152.945312 192.6875 153.039062 Z M 193.824219 151.203125 L 194.109375 151.046875 C 194.648438 150.730469 195.21875 150.445312 195.820312 150.253906 C 196.484375 150.035156 198.03125 149.496094 198.917969 149.90625 C 199.171875 150.035156 199.203125 150.160156 199.203125 150.191406 C 199.234375 150.414062 199.078125 150.761719 198.824219 151.015625 C 198.445312 151.363281 197.90625 151.550781 197.335938 151.710938 C 196.578125 151.933594 195.820312 152.027344 195.15625 152.027344 C 194.617188 152.027344 194.207031 151.867188 193.636719 151.679688 L 193.257812 151.550781 C 193.445312 151.394531 193.636719 151.300781 193.824219 151.203125 Z M 193.824219 151.203125 " fill-opacity="1" fill-rule="nonzero"/><g clip-path="url(#9e19761a23)"><path fill="#231f20" d="M 257.71875 183.214844 L 257.589844 183.085938 C 257.527344 183.023438 257.496094 182.992188 257.433594 182.960938 C 258.507812 181.601562 259.203125 179.988281 259.519531 178.121094 C 261.417969 167.019531 249.464844 150.003906 240.386719 143.171875 C 227.796875 133.683594 192.910156 123.75 158.117188 132.636719 C 139.769531 137.320312 124.652344 148.230469 117.597656 161.832031 C 114.371094 168.03125 113.421875 173.914062 114.941406 177.996094 C 115.351562 180.050781 116.871094 181.917969 119.527344 183.5 C 119.875 183.71875 120.222656 183.910156 120.601562 184.101562 C 118.863281 185.269531 116.425781 187.230469 116.175781 189.285156 C 116.046875 190.234375 116.363281 191.089844 117.125 191.816406 C 118.421875 193.050781 119.8125 193.492188 121.203125 193.558594 C 117.914062 196.433594 112.570312 201.496094 113.265625 203.617188 C 113.644531 204.753906 114.910156 204.878906 118.484375 203.898438 C 117.597656 205.640625 116.839844 207.820312 118.039062 209.5625 C 118.609375 210.382812 119.304688 211.078125 120.160156 211.710938 C 118.738281 213.007812 116.933594 215.222656 116.742188 216.996094 C 116.648438 217.945312 116.996094 218.734375 117.722656 219.242188 C 118.074219 219.460938 118.390625 219.683594 118.738281 219.839844 C 118.957031 221.074219 119.148438 222.433594 119.304688 223.859375 C 119.90625 228.730469 120.601562 234.234375 123.890625 237.902344 C 129.425781 244.164062 141.761719 245.808594 150.777344 247.042969 C 152.265625 247.234375 153.65625 247.421875 154.921875 247.613281 C 168.839844 249.761719 179.972656 250.742188 190.949219 250.742188 C 193.542969 250.742188 196.199219 250.871094 198.761719 250.996094 C 201.449219 251.125 204.199219 251.25 206.921875 251.25 C 207.871094 251.25 208.820312 251.21875 209.765625 251.1875 C 211.980469 251.09375 214.195312 250.933594 216.410156 250.777344 C 219.003906 250.585938 221.691406 250.394531 224.316406 250.332031 C 237.632812 249.953125 245.730469 247.453125 250.632812 242.171875 C 254.871094 237.617188 256.707031 230.910156 256.261719 221.613281 C 256.261719 221.519531 256.230469 221.421875 256.199219 221.359375 C 257.90625 219.242188 259.078125 216.203125 258.984375 213.484375 C 258.921875 211.207031 257.972656 209.433594 256.328125 208.421875 C 257.371094 206.082031 257.308594 203.742188 257.277344 201.9375 C 257.242188 200.957031 257.242188 200.105469 257.402344 199.628906 C 257.527344 199.21875 257.371094 198.808594 257.054688 198.554688 C 258.003906 197.257812 258.855469 195.867188 259.554688 194.347656 C 259.835938 194.222656 260.121094 194.0625 260.40625 193.839844 C 261.546875 193.019531 262.144531 191.976562 262.242188 190.773438 C 262.429688 187.863281 259.363281 184.859375 257.71875 183.214844 Z M 116.839844 177.550781 L 116.777344 177.363281 C 115.445312 173.851562 116.394531 168.378906 119.304688 162.71875 C 126.105469 149.589844 140.78125 139.058594 158.589844 134.535156 C 168.046875 132.132812 177.472656 131.121094 186.457031 131.121094 C 209.988281 131.121094 230.328125 138.046875 239.214844 144.753906 C 248.863281 152.027344 259.203125 168.378906 257.589844 177.804688 C 256.992188 181.378906 254.746094 183.785156 250.917969 185.015625 C 237.347656 189.320312 149.195312 194.191406 123.417969 183.277344 C 123.226562 183.085938 122.976562 182.960938 122.722656 182.960938 C 121.898438 182.582031 121.171875 182.203125 120.507812 181.789062 C 118.324219 180.492188 117.09375 179.070312 116.839844 177.550781 Z M 124.683594 193.113281 C 124.871094 193.082031 125.0625 193.019531 125.222656 192.988281 C 126.960938 192.578125 128.605469 192.230469 130.15625 192.671875 C 132.402344 193.367188 133.664062 194.601562 134.996094 195.867188 C 136.796875 197.605469 138.851562 199.597656 143.472656 200.136719 C 145.75 200.390625 147.550781 199.21875 149.324219 198.082031 C 151.253906 196.816406 152.929688 195.738281 155.015625 196.625 C 156.503906 197.257812 157.703125 198.523438 159 199.882812 C 160.929688 201.90625 163.082031 204.183594 166.464844 204.214844 C 169.691406 204.214844 172.191406 202.667969 174.59375 201.148438 C 177.03125 199.628906 179.371094 198.144531 182.375 198.300781 C 184.179688 198.394531 185.632812 199.566406 187.183594 200.800781 C 188.671875 202.003906 190.21875 203.234375 192.277344 203.710938 C 198.160156 205.070312 200.5625 203.234375 202.714844 201.621094 C 204.136719 200.546875 205.371094 199.628906 207.648438 199.535156 C 211.222656 199.410156 213.941406 200.707031 216.535156 201.96875 C 219.855469 203.582031 222.988281 205.101562 227.257812 203.109375 C 228.714844 202.445312 229.410156 201.179688 230.011719 200.074219 C 230.421875 199.34375 230.800781 198.648438 231.371094 198.207031 C 233.679688 196.308594 237.761719 197.921875 241.367188 199.34375 C 245.191406 200.832031 248.796875 202.253906 250.253906 199.378906 C 253.003906 193.9375 254.523438 194.222656 256.261719 194.539062 C 256.546875 194.601562 256.863281 194.664062 257.210938 194.695312 C 251.074219 206.210938 234.722656 210.320312 229.695312 211.332031 L 227.574219 211.746094 C 220.425781 213.136719 213.023438 214.589844 207.363281 219.777344 C 207.171875 219.714844 206.953125 219.652344 206.824219 219.621094 C 206.667969 219.558594 206.542969 219.523438 206.476562 219.492188 C 205.179688 219.175781 203.851562 218.925781 202.523438 218.671875 C 200.691406 218.324219 198.792969 217.945312 196.988281 217.375 C 194.839844 216.710938 192.5625 216.300781 190.378906 215.917969 C 188.257812 215.539062 186.078125 215.160156 184.019531 214.527344 C 178.515625 212.820312 173.046875 210.765625 167.792969 208.769531 C 160.109375 205.859375 152.136719 202.855469 143.914062 200.894531 C 137.523438 199.378906 129.144531 199.378906 121.519531 200.925781 C 121.425781 200.957031 121.109375 201.054688 120.667969 201.179688 C 117.535156 202.191406 116.015625 202.507812 115.289062 202.570312 C 116.332031 200.546875 122.121094 195.105469 124.683594 193.113281 Z M 120.792969 203.648438 L 121.078125 203.109375 C 121.140625 203.078125 121.171875 203.078125 121.234375 203.046875 C 121.582031 202.953125 121.804688 202.855469 121.898438 202.855469 C 129.238281 201.371094 137.304688 201.339844 143.441406 202.824219 C 151.570312 204.753906 159.445312 207.726562 167.097656 210.605469 C 172.414062 212.597656 177.882812 214.6875 183.453125 216.394531 C 185.476562 217.027344 187.53125 217.40625 189.554688 217.753906 C 187.4375 217.691406 185.285156 217.5 183.136719 217.3125 C 181.269531 217.152344 179.308594 216.996094 177.472656 216.898438 C 166.277344 216.488281 157.578125 215.917969 149.226562 215.097656 C 147.804688 214.9375 146.066406 214.875 144.007812 214.75 C 137.367188 214.402344 128.035156 213.894531 122.722656 211.015625 C 122.53125 210.699219 122.214844 210.542969 121.898438 210.542969 C 120.949219 209.941406 120.160156 209.214844 119.589844 208.390625 C 118.769531 207.253906 120 205.070312 120.792969 203.648438 Z M 249.179688 240.90625 C 244.65625 245.777344 236.96875 248.085938 224.222656 248.433594 C 221.535156 248.5 218.84375 248.6875 216.21875 248.878906 C 214.039062 249.035156 211.824219 249.195312 209.640625 249.289062 C 206.066406 249.445312 202.367188 249.257812 198.792969 249.066406 C 196.199219 248.941406 193.507812 248.816406 190.882812 248.816406 C 179.972656 248.78125 168.964844 247.832031 155.144531 245.683594 C 153.878906 245.492188 152.453125 245.304688 150.96875 245.082031 C 142.269531 243.910156 130.34375 242.296875 125.285156 236.605469 C 122.40625 233.378906 121.742188 228.191406 121.171875 223.605469 C 121.046875 222.625 120.917969 221.675781 120.792969 220.757812 C 124.082031 221.867188 127.277344 221.328125 130.40625 220.789062 C 132.496094 220.441406 134.679688 220.0625 136.890625 220.191406 C 138.757812 220.285156 139.328125 220.886719 140.246094 221.929688 C 140.78125 222.5 141.382812 223.164062 142.269531 223.796875 C 145.304688 225.914062 149.703125 227.433594 153.433594 227.71875 C 156.535156 227.9375 159.382812 226.925781 162.101562 225.914062 C 163.492188 225.410156 164.820312 224.933594 166.214844 224.617188 C 169.34375 223.859375 173.394531 223.605469 177.632812 223.921875 C 181.742188 224.207031 185.855469 225.691406 189.839844 227.117188 C 193.667969 228.507812 197.621094 229.898438 201.734375 230.34375 C 202.238281 230.40625 202.714844 230.40625 203.21875 230.40625 C 206.761719 230.40625 209.640625 229.046875 212.457031 227.71875 C 214.796875 226.609375 217.042969 225.566406 219.636719 225.25 C 223.050781 224.839844 226.5625 225.472656 229.980469 226.039062 C 233.394531 226.640625 236.652344 227.210938 239.59375 226.738281 C 240.132812 226.640625 240.765625 226.546875 241.429688 226.453125 C 245.414062 225.851562 251.390625 224.964844 254.050781 223.382812 C 254.144531 223.320312 254.269531 223.257812 254.367188 223.164062 C 254.523438 231.164062 252.816406 236.984375 249.179688 240.90625 Z M 257.023438 213.640625 C 257.117188 216.679688 255.28125 220.347656 253.035156 221.707031 C 250.695312 223.097656 244.71875 223.984375 241.113281 224.523438 C 240.417969 224.617188 239.785156 224.710938 239.246094 224.808594 C 236.621094 225.25 233.519531 224.679688 230.261719 224.113281 C 226.722656 223.480469 223.050781 222.847656 219.382812 223.289062 C 216.441406 223.636719 213.972656 224.808594 211.601562 225.945312 C 208.535156 227.402344 205.625 228.761719 201.953125 228.382812 C 198.097656 227.96875 194.238281 226.578125 190.535156 225.25 C 186.425781 223.761719 182.1875 222.246094 177.820312 221.960938 C 174.691406 221.738281 170.070312 221.707031 165.800781 222.71875 C 164.316406 223.066406 162.890625 223.605469 161.5 224.078125 C 158.84375 225.027344 156.3125 225.945312 153.625 225.757812 C 150.207031 225.535156 146.191406 224.113281 143.40625 222.183594 C 142.679688 221.675781 142.175781 221.136719 141.699219 220.601562 C 140.6875 219.492188 139.675781 218.386719 137.019531 218.226562 C 134.582031 218.101562 132.304688 218.480469 130.125 218.859375 C 126.074219 219.558594 122.59375 220.125 118.800781 217.597656 C 118.738281 217.53125 118.640625 217.46875 118.640625 217.214844 C 118.738281 215.917969 120.761719 213.640625 121.835938 212.789062 C 127.53125 215.886719 136.765625 216.363281 143.945312 216.742188 C 145.9375 216.835938 147.679688 216.929688 149.070312 217.089844 C 157.484375 217.945312 166.214844 218.480469 177.441406 218.925781 C 179.246094 218.988281 181.078125 219.144531 183.007812 219.304688 C 185.632812 219.523438 188.289062 219.746094 190.882812 219.746094 C 192.75 219.746094 194.585938 219.621094 196.386719 219.304688 C 196.417969 219.304688 196.453125 219.304688 196.453125 219.273438 C 198.347656 219.875 200.277344 220.222656 202.175781 220.601562 C 203.472656 220.855469 204.738281 221.105469 206.003906 221.421875 L 206.226562 221.484375 C 206.730469 221.644531 207.207031 221.800781 207.617188 221.800781 C 207.902344 221.800781 208.1875 221.707031 208.40625 221.484375 C 208.914062 221.011719 209.417969 220.570312 209.957031 220.15625 C 210.148438 220.316406 210.367188 220.441406 210.621094 220.441406 C 210.652344 220.441406 210.683594 220.441406 210.683594 220.441406 C 212.613281 220.316406 214.988281 220.222656 217.484375 220.125 C 230.546875 219.683594 248.417969 219.050781 255.0625 210.605469 C 255.15625 210.480469 255.25 210.320312 255.378906 210.195312 C 256.644531 211.046875 256.992188 212.503906 257.023438 213.640625 Z M 255.3125 202.066406 C 255.378906 204.246094 255.410156 206.96875 253.511719 209.433594 C 247.4375 217.152344 229.378906 217.785156 217.390625 218.226562 C 215.714844 218.292969 214.101562 218.355469 212.613281 218.417969 C 217.136719 215.855469 222.417969 214.8125 227.921875 213.738281 L 230.042969 213.324219 C 235.671875 212.1875 247.816406 208.898438 255.28125 200.769531 C 255.28125 201.148438 255.3125 201.589844 255.3125 202.066406 Z M 259.238281 192.355469 C 258.351562 192.988281 257.625 192.859375 256.644531 192.671875 C 254.082031 192.164062 251.675781 192.292969 248.515625 198.523438 C 247.914062 199.726562 245.574219 198.933594 242.0625 197.542969 C 237.949219 195.929688 233.300781 194.09375 230.105469 196.71875 C 229.28125 197.414062 228.777344 198.300781 228.300781 199.125 C 227.765625 200.105469 227.289062 200.925781 226.40625 201.339844 C 222.988281 202.917969 220.488281 201.71875 217.359375 200.199219 C 214.703125 198.902344 211.664062 197.449219 207.554688 197.574219 C 204.675781 197.667969 203 198.933594 201.542969 200.042969 C 199.582031 201.527344 197.714844 202.917969 192.71875 201.78125 C 191.105469 201.402344 189.808594 200.359375 188.417969 199.25 C 186.710938 197.859375 184.90625 196.433594 182.472656 196.339844 C 178.800781 196.152344 176.175781 197.859375 173.550781 199.472656 C 171.273438 200.894531 169.121094 202.253906 166.433594 202.253906 C 163.871094 202.253906 162.164062 200.453125 160.363281 198.554688 C 159 197.101562 157.578125 195.613281 155.742188 194.855469 C 152.707031 193.589844 150.335938 195.105469 148.246094 196.46875 C 146.699219 197.480469 145.242188 198.429688 143.691406 198.238281 C 139.738281 197.796875 138.09375 196.214844 136.355469 194.507812 C 134.929688 193.113281 133.445312 191.660156 130.722656 190.835938 C 128.699219 190.203125 126.707031 190.679688 124.777344 191.121094 C 122.375 191.691406 120.285156 192.164062 118.421875 190.394531 C 118.039062 190.046875 118.039062 189.761719 118.074219 189.539062 C 118.261719 188.179688 120.730469 186.21875 122.691406 185.082031 C 134.773438 190.171875 159.222656 191.945312 183.734375 191.945312 C 213.722656 191.945312 243.832031 189.285156 251.519531 186.851562 C 253.351562 186.28125 254.871094 185.429688 256.105469 184.351562 C 256.136719 184.417969 256.167969 184.449219 256.230469 184.480469 L 256.359375 184.605469 C 257.6875 185.902344 260.40625 188.621094 260.28125 190.679688 C 260.21875 191.3125 259.867188 191.847656 259.238281 192.355469 Z M 259.238281 192.355469 " fill-opacity="1" fill-rule="nonzero"/></g><path fill="#231f20" d="M 137.523438 180.460938 C 140.339844 180.558594 143.28125 180.777344 145.90625 181.949219 C 146 181.980469 146.066406 182.011719 146.160156 182.011719 C 146.382812 182.011719 146.601562 181.886719 146.730469 181.664062 C 146.855469 181.347656 146.730469 181 146.414062 180.875 C 143.597656 179.640625 140.496094 179.386719 137.589844 179.292969 C 137.304688 179.292969 136.988281 179.546875 136.957031 179.894531 C 136.925781 180.175781 137.207031 180.460938 137.523438 180.460938 Z M 137.523438 180.460938 " fill-opacity="1" fill-rule="nonzero"/><path fill="#231f20" d="M 123.355469 177.996094 C 124.304688 178.566406 125.347656 179.007812 126.484375 179.355469 C 126.550781 179.386719 126.613281 179.386719 126.675781 179.386719 C 126.929688 179.386719 127.183594 179.230469 127.246094 178.945312 C 127.339844 178.628906 127.148438 178.28125 126.832031 178.183594 C 125.789062 177.867188 124.808594 177.425781 123.957031 176.917969 C 122.691406 176.160156 121.804688 174.675781 121.519531 172.839844 C 121.234375 171.003906 121.457031 168.949219 122.121094 166.511719 C 122.753906 164.269531 123.671875 162.117188 124.90625 160.1875 C 125.789062 158.765625 127.054688 156.992188 128.859375 155.949219 C 129.144531 155.792969 129.269531 155.410156 129.078125 155.125 C 128.921875 154.84375 128.542969 154.714844 128.257812 154.90625 C 126.203125 156.042969 124.839844 158.003906 123.859375 159.554688 C 122.59375 161.609375 121.613281 163.824219 120.949219 166.199219 C 120.222656 168.789062 120.035156 171.003906 120.316406 173.03125 C 120.632812 175.242188 121.742188 177.078125 123.355469 177.996094 Z M 123.355469 177.996094 " fill-opacity="1" fill-rule="nonzero"/><path fill="#231f20" d="M 246.996094 163.539062 C 247.535156 164.835938 248.101562 166.199219 248.578125 167.527344 C 248.703125 167.9375 248.863281 168.378906 248.988281 168.824219 C 249.050781 169.074219 249.304688 169.265625 249.558594 169.265625 C 249.621094 169.265625 249.683594 169.265625 249.714844 169.234375 C 250.03125 169.140625 250.222656 168.789062 250.128906 168.476562 C 250 168.03125 249.84375 167.558594 249.714844 167.113281 C 249.242188 165.722656 248.671875 164.363281 248.101562 163.035156 C 247.566406 161.800781 247.027344 160.503906 246.585938 159.238281 C 246.488281 158.921875 246.140625 158.734375 245.824219 158.859375 C 245.507812 158.953125 245.351562 159.300781 245.445312 159.617188 C 245.921875 160.976562 246.457031 162.308594 246.996094 163.539062 Z M 246.996094 163.539062 " fill-opacity="1" fill-rule="nonzero"/><path fill="#231f20" d="M 213.691406 183.246094 C 213.722656 183.5625 214.003906 183.75 214.289062 183.75 C 214.320312 183.75 214.355469 183.75 214.386719 183.75 C 216.316406 183.46875 218.308594 183.339844 220.238281 183.246094 C 220.902344 183.214844 221.535156 183.183594 222.199219 183.121094 C 225.804688 182.898438 229.632812 182.613281 233.394531 182.171875 C 236.875 181.757812 240.574219 181.222656 244.054688 180.144531 C 244.875 179.894531 245.539062 179.640625 246.140625 179.386719 C 246.457031 179.261719 246.585938 178.878906 246.457031 178.597656 C 246.332031 178.28125 245.984375 178.152344 245.667969 178.28125 C 245.097656 178.53125 244.464844 178.753906 243.675781 179.007812 C 240.289062 180.082031 236.652344 180.589844 233.238281 181 C 229.503906 181.441406 225.675781 181.695312 222.101562 181.949219 C 221.46875 181.980469 220.804688 182.011719 220.140625 182.042969 C 218.179688 182.140625 216.15625 182.265625 214.164062 182.550781 C 213.847656 182.613281 213.625 182.929688 213.691406 183.246094 Z M 213.691406 183.246094 " fill-opacity="1" fill-rule="nonzero"/><path fill="#231f20" d="M 233.710938 242.203125 C 232.539062 242.425781 231.210938 242.613281 229.726562 242.773438 C 225.675781 243.183594 221.535156 243.246094 217.484375 243.277344 L 214.605469 243.3125 C 211.03125 243.34375 207.332031 243.375 203.789062 244.261719 C 203.472656 244.355469 203.25 244.671875 203.347656 244.988281 C 203.410156 245.273438 203.664062 245.460938 203.949219 245.460938 C 204.011719 245.460938 204.042969 245.460938 204.105469 245.429688 C 207.488281 244.574219 211.128906 244.542969 214.605469 244.511719 L 217.515625 244.480469 C 221.566406 244.449219 225.742188 244.386719 229.851562 243.976562 C 231.371094 243.816406 232.730469 243.628906 233.933594 243.40625 C 234.25 243.34375 234.46875 243.027344 234.40625 242.710938 C 234.34375 242.363281 234.027344 242.140625 233.710938 242.203125 Z M 233.710938 242.203125 " fill-opacity="1" fill-rule="nonzero"/><path fill="#231f20" d="M 248.609375 229.867188 C 248.261719 229.804688 247.976562 230.027344 247.914062 230.375 C 247.566406 232.398438 246.835938 234.234375 245.792969 235.71875 C 245.257812 236.511719 244.558594 237.269531 243.800781 237.933594 C 243.546875 238.15625 243.515625 238.535156 243.738281 238.789062 C 243.863281 238.914062 244.023438 239.007812 244.210938 239.007812 C 244.371094 239.007812 244.496094 238.945312 244.625 238.851562 C 245.476562 238.125 246.203125 237.300781 246.835938 236.414062 C 247.976562 234.769531 248.765625 232.808594 249.148438 230.59375 C 249.148438 230.214844 248.925781 229.898438 248.609375 229.867188 Z M 248.609375 229.867188 " fill-opacity="1" fill-rule="nonzero"/><path fill="#231f20" d="M 150.902344 238.375 C 149.132812 238.28125 147.613281 238.125 146.191406 237.964844 C 142.460938 237.554688 138.125 236.828125 134.394531 234.769531 C 131.074219 232.9375 128.667969 229.710938 127.972656 226.136719 C 127.910156 225.820312 127.59375 225.597656 127.246094 225.660156 C 126.929688 225.726562 126.707031 226.039062 126.769531 226.390625 C 127.53125 230.3125 130.1875 233.855469 133.824219 235.847656 C 137.746094 238.027344 142.207031 238.757812 146.066406 239.199219 C 147.519531 239.355469 149.070312 239.484375 150.839844 239.609375 C 150.839844 239.609375 150.871094 239.609375 150.871094 239.609375 C 151.1875 239.609375 151.472656 239.355469 151.472656 239.039062 C 151.503906 238.691406 151.253906 238.410156 150.902344 238.375 Z M 150.902344 238.375 " fill-opacity="1" fill-rule="nonzero"/><path fill="#231f20" d="M 170.894531 240.054688 C 167.859375 239.167969 164.695312 238.976562 161.941406 238.851562 C 161.59375 238.851562 161.308594 239.105469 161.308594 239.421875 C 161.308594 239.769531 161.5625 240.054688 161.878906 240.054688 C 164.535156 240.179688 167.636719 240.371094 170.546875 241.222656 C 170.609375 241.253906 170.671875 241.253906 170.703125 241.253906 C 170.957031 241.253906 171.210938 241.097656 171.273438 240.8125 C 171.402344 240.496094 171.210938 240.148438 170.894531 240.054688 Z M 170.894531 240.054688 " fill-opacity="1" fill-rule="nonzero"/><path fill="#231f20" d="M 179.78125 209.277344 C 182.15625 209.785156 184.527344 210.382812 186.835938 210.984375 C 192.308594 212.375 197.9375 213.832031 203.695312 213.957031 C 203.789062 213.957031 203.882812 213.957031 203.980469 213.957031 C 206.890625 213.957031 209.671875 213.042969 212.328125 212.125 L 212.867188 211.933594 C 213.183594 211.839844 213.375 211.492188 213.246094 211.175781 C 213.152344 210.859375 212.804688 210.667969 212.488281 210.796875 L 211.949219 210.984375 C 209.136719 211.933594 206.507812 212.789062 203.726562 212.757812 C 198.128906 212.628906 192.527344 211.207031 187.152344 209.816406 C 184.8125 209.214844 182.40625 208.613281 180.035156 208.105469 C 179.6875 208.042969 179.371094 208.265625 179.308594 208.582031 C 179.246094 208.898438 179.433594 209.214844 179.78125 209.277344 Z M 179.78125 209.277344 " fill-opacity="1" fill-rule="nonzero"/><path fill="#231f20" d="M 225.203125 209.246094 C 225.234375 209.246094 225.265625 209.246094 225.296875 209.246094 C 228.367188 208.675781 231.941406 207.980469 235.386719 206.90625 C 235.703125 206.808594 235.894531 206.460938 235.796875 206.144531 C 235.703125 205.828125 235.355469 205.640625 235.039062 205.734375 C 231.625 206.777344 228.082031 207.472656 225.078125 208.042969 C 224.761719 208.105469 224.539062 208.421875 224.601562 208.738281 C 224.632812 209.054688 224.886719 209.246094 225.203125 209.246094 Z M 225.203125 209.246094 " fill-opacity="1" fill-rule="nonzero"/><path fill="#231f20" d="M 188.703125 194.695312 C 188.386719 194.570312 188.039062 194.726562 187.910156 195.011719 C 187.785156 195.328125 187.941406 195.675781 188.226562 195.804688 C 190.09375 196.5625 191.800781 197.605469 193.351562 198.871094 C 193.476562 198.964844 193.605469 198.996094 193.730469 198.996094 C 193.921875 198.996094 194.078125 198.933594 194.207031 198.777344 C 194.425781 198.523438 194.394531 198.144531 194.109375 197.921875 C 192.496094 196.625 190.664062 195.519531 188.703125 194.695312 Z M 188.703125 194.695312 " fill-opacity="1" fill-rule="nonzero"/><path fill="#231f20" d="M 181.046875 193.210938 C 178.800781 193.273438 176.746094 193.777344 174.847656 194.726562 L 174.121094 195.105469 C 171.75 196.339844 169.25 197.636719 166.71875 197.414062 C 166.148438 197.351562 165.582031 197.003906 165.011719 196.625 C 164.347656 196.183594 163.523438 195.644531 162.542969 195.644531 C 162.195312 195.644531 161.941406 195.929688 161.941406 196.246094 C 161.941406 196.59375 162.226562 196.847656 162.542969 196.847656 C 163.175781 196.847656 163.777344 197.226562 164.347656 197.636719 C 164.949219 198.046875 165.707031 198.523438 166.59375 198.617188 C 166.8125 198.648438 167.035156 198.648438 167.257812 198.648438 C 169.882812 198.648438 172.316406 197.382812 174.660156 196.183594 L 175.386719 195.804688 C 177.09375 194.917969 178.992188 194.441406 181.046875 194.410156 C 181.394531 194.410156 181.648438 194.125 181.648438 193.777344 C 181.679688 193.460938 181.394531 193.242188 181.046875 193.210938 Z M 181.046875 193.210938 " fill-opacity="1" fill-rule="nonzero"/><path fill="#231f20" d="M 222.039062 197.699219 C 220.425781 197.699219 218.78125 197.066406 217.230469 196.433594 L 216.410156 196.085938 C 214.703125 195.359375 212.929688 194.601562 211 194.472656 C 208.722656 194.316406 206.160156 194.15625 203.789062 195.011719 C 203.472656 195.136719 203.316406 195.488281 203.410156 195.804688 C 203.503906 196.117188 203.882812 196.277344 204.199219 196.183594 C 206.351562 195.390625 208.785156 195.550781 210.9375 195.707031 C 212.644531 195.835938 214.320312 196.53125 215.933594 197.226562 L 216.789062 197.574219 C 218.433594 198.269531 220.207031 198.933594 222.039062 198.933594 C 222.417969 198.933594 222.671875 198.648438 222.671875 198.332031 C 222.671875 197.984375 222.386719 197.699219 222.039062 197.699219 Z M 222.039062 197.699219 " fill-opacity="1" fill-rule="nonzero"/><path fill="#231f20" d="M 233.519531 192.640625 C 231.78125 192.511719 229.949219 193.242188 227.921875 194.789062 C 227.667969 194.980469 227.605469 195.390625 227.796875 195.644531 C 227.921875 195.804688 228.113281 195.898438 228.269531 195.898438 C 228.398438 195.898438 228.523438 195.867188 228.652344 195.769531 C 230.453125 194.410156 232.003906 193.777344 233.457031 193.875 C 233.804688 193.90625 234.089844 193.652344 234.089844 193.304688 C 234.121094 192.957031 233.871094 192.671875 233.519531 192.640625 Z M 233.519531 192.640625 " fill-opacity="1" fill-rule="nonzero"/><path fill="#231f20" d="M 255.664062 188.65625 C 254.933594 188.875 254.144531 189.222656 253.226562 189.667969 C 252.910156 189.824219 252.816406 190.171875 252.941406 190.488281 C 253.035156 190.710938 253.257812 190.835938 253.480469 190.835938 C 253.574219 190.835938 253.667969 190.804688 253.765625 190.773438 C 254.617188 190.332031 255.347656 190.046875 256.011719 189.824219 C 256.328125 189.730469 256.515625 189.382812 256.421875 189.066406 C 256.328125 188.71875 255.980469 188.558594 255.664062 188.65625 Z M 255.664062 188.65625 " fill-opacity="1" fill-rule="nonzero"/><path fill="#231f20" d="M 250.410156 191.152344 C 250.128906 191.3125 249.8125 191.4375 249.527344 191.597656 C 247.1875 192.640625 244.84375 192.828125 242.914062 192.101562 C 242.597656 191.976562 242.25 192.132812 242.125 192.449219 C 242 192.765625 242.15625 193.113281 242.472656 193.242188 C 243.390625 193.589844 244.371094 193.746094 245.414062 193.746094 C 246.902344 193.746094 248.449219 193.398438 250 192.703125 C 250.316406 192.546875 250.632812 192.417969 250.949219 192.261719 C 251.234375 192.101562 251.359375 191.753906 251.234375 191.4375 C 251.074219 191.121094 250.726562 190.996094 250.410156 191.152344 Z M 250.410156 191.152344 " fill-opacity="1" fill-rule="nonzero"/><path fill="#231f20" d="M 154.730469 212.535156 C 157.136719 212.628906 159.570312 212.726562 161.976562 212.851562 C 161.976562 212.851562 162.007812 212.851562 162.007812 212.851562 C 162.324219 212.851562 162.605469 212.597656 162.605469 212.28125 C 162.640625 211.933594 162.355469 211.648438 162.039062 211.648438 C 159.632812 211.523438 157.199219 211.429688 154.792969 211.332031 C 154.476562 211.300781 154.164062 211.585938 154.164062 211.902344 C 154.128906 212.25 154.382812 212.535156 154.730469 212.535156 Z M 154.730469 212.535156 " fill-opacity="1" fill-rule="nonzero"/><path fill="#231f20" d="M 125.726562 209.054688 C 126.519531 209.625 127.433594 209.878906 128.414062 210.164062 C 129.871094 210.542969 131.355469 210.796875 132.464844 210.953125 C 136.101562 211.492188 139.738281 211.777344 143.125 211.996094 C 143.976562 212.0625 144.832031 212.09375 145.683594 212.15625 C 145.683594 212.15625 145.71875 212.15625 145.71875 212.15625 C 146.035156 212.15625 146.316406 211.902344 146.316406 211.585938 C 146.347656 211.238281 146.066406 210.953125 145.75 210.953125 C 144.894531 210.890625 144.039062 210.859375 143.1875 210.796875 C 139.800781 210.574219 136.195312 210.289062 132.621094 209.75 C 131.453125 209.5625 130.058594 209.339844 128.699219 208.960938 C 127.8125 208.707031 127.023438 208.488281 126.390625 208.042969 C 125.851562 207.664062 125.886719 206.777344 125.886719 205.894531 C 125.886719 205.640625 125.886719 205.417969 125.886719 205.195312 C 125.886719 204.847656 125.632812 204.660156 125.253906 204.597656 C 124.90625 204.597656 124.652344 204.878906 124.652344 205.230469 C 124.652344 205.449219 124.652344 205.640625 124.652344 205.859375 C 124.683594 206.9375 124.652344 208.296875 125.726562 209.054688 Z M 125.726562 209.054688 " fill-opacity="1" fill-rule="nonzero"/><path fill="#231f20" d="M 155.492188 222.246094 C 155.015625 222.183594 154.574219 222.117188 154.097656 222.054688 C 153.78125 221.992188 153.464844 222.246094 153.402344 222.5625 C 153.339844 222.878906 153.59375 223.195312 153.910156 223.257812 C 154.382812 223.320312 154.859375 223.382812 155.332031 223.449219 C 155.363281 223.449219 155.394531 223.449219 155.394531 223.449219 C 155.710938 223.449219 155.964844 223.226562 155.996094 222.910156 C 156.058594 222.5625 155.839844 222.277344 155.492188 222.246094 Z M 155.492188 222.246094 " fill-opacity="1" fill-rule="nonzero"/><path fill="#231f20" d="M 152.421875 221.707031 C 150.777344 221.296875 149.640625 220.664062 148.816406 219.746094 C 148.59375 219.492188 148.214844 219.492188 147.960938 219.714844 C 147.710938 219.9375 147.710938 220.316406 147.929688 220.570312 C 148.910156 221.644531 150.304688 222.402344 152.136719 222.878906 C 152.199219 222.878906 152.234375 222.910156 152.296875 222.910156 C 152.582031 222.910156 152.800781 222.71875 152.898438 222.46875 C 152.960938 222.117188 152.738281 221.800781 152.421875 221.707031 Z M 152.421875 221.707031 " fill-opacity="1" fill-rule="nonzero"/></svg>