<svg xmlns="http://www.w3.org/2000/svg" xmlns:xlink="http://www.w3.org/1999/xlink" width="500" zoomAndPan="magnify" viewBox="0 0 375 374.999991" height="500" preserveAspectRatio="xMidYMid meet" version="1.0"><defs><clipPath id="bf227dd48a"><path d="M 120.84375 112.5 L 254.15625 112.5 L 254.15625 262.5 L 120.84375 262.5 Z M 120.84375 112.5 " clip-rule="nonzero"/></clipPath></defs><g clip-path="url(#bf227dd48a)"><path fill="#000000" d="M 161.699219 206.308594 C 162.730469 206.308594 163.566406 207.144531 163.566406 208.171875 L 163.566406 244.957031 L 184.941406 244.957031 L 184.941406 130.941406 L 163.566406 130.941406 L 163.566406 166.921875 C 163.566406 167.949219 162.730469 168.785156 161.699219 168.785156 C 160.667969 168.785156 159.832031 167.949219 159.832031 166.921875 L 159.832031 129.078125 C 159.832031 128.050781 160.667969 127.214844 161.699219 127.214844 L 184.941406 127.214844 L 184.941406 118.421875 C 184.941406 116.667969 185.695312 115.089844 187.066406 113.988281 C 188.4375 112.886719 190.136719 112.484375 191.855469 112.855469 L 249.597656 125.335938 C 252.246094 125.910156 254.097656 128.199219 254.097656 130.90625 L 254.097656 244.414062 C 254.097656 247.125 252.242188 249.414062 249.589844 249.984375 L 191.847656 262.363281 C 191.433594 262.453125 191.019531 262.496094 190.613281 262.496094 C 189.328125 262.496094 188.101562 262.0625 187.0625 261.226562 C 185.695312 260.121094 184.941406 258.550781 184.941406 256.792969 L 184.941406 248.683594 L 161.699219 248.683594 C 160.667969 248.683594 159.832031 247.847656 159.832031 246.820312 L 159.832031 208.171875 C 159.832031 207.140625 160.664062 206.308594 161.699219 206.308594 Z M 188.675781 256.792969 C 188.675781 257.429688 188.914062 257.929688 189.40625 258.328125 C 189.902344 258.722656 190.445312 258.855469 191.0625 258.722656 L 248.804688 246.335938 C 249.738281 246.140625 250.363281 245.363281 250.363281 244.414062 L 250.363281 130.90625 C 250.363281 129.953125 249.738281 129.183594 248.808594 128.980469 L 191.0625 116.5 C 190.902344 116.464844 190.75 116.445312 190.601562 116.445312 C 190.167969 116.445312 189.773438 116.59375 189.40625 116.886719 C 188.914062 117.285156 188.671875 117.785156 188.671875 118.417969 L 188.671875 256.792969 Z M 201.71875 181.597656 C 205.128906 181.597656 207.902344 184.371094 207.902344 187.777344 C 207.902344 191.183594 205.128906 193.953125 201.71875 193.953125 C 198.308594 193.953125 195.53125 191.183594 195.53125 187.777344 C 195.53125 184.371094 198.308594 181.597656 201.71875 181.597656 Z M 201.71875 190.222656 C 203.070312 190.222656 204.171875 189.125 204.171875 187.773438 C 204.171875 186.421875 203.070312 185.324219 201.71875 185.324219 C 200.363281 185.324219 199.265625 186.421875 199.265625 187.773438 C 199.265625 189.125 200.363281 190.222656 201.71875 190.222656 Z M 120.6875 187.949219 C 120.6875 188.445312 120.882812 188.921875 121.234375 189.269531 L 139.46875 207.476562 C 139.835938 207.839844 140.3125 208.023438 140.789062 208.023438 C 141.269531 208.023438 141.746094 207.839844 142.109375 207.476562 C 142.835938 206.746094 142.835938 205.566406 142.109375 204.835938 L 127.058594 189.816406 L 174.894531 189.816406 C 175.921875 189.816406 176.761719 188.980469 176.761719 187.949219 C 176.761719 186.921875 175.921875 186.085938 174.894531 186.085938 L 127.058594 186.085938 L 142.109375 171.0625 C 142.835938 170.335938 142.835938 169.15625 142.109375 168.425781 C 141.382812 167.699219 140.199219 167.699219 139.46875 168.425781 L 121.230469 186.628906 C 120.882812 186.980469 120.6875 187.453125 120.6875 187.949219 Z M 120.6875 187.949219 " fill-opacity="1" fill-rule="nonzero"/></g></svg>