<svg xmlns="http://www.w3.org/2000/svg" xmlns:xlink="http://www.w3.org/1999/xlink" width="500" zoomAndPan="magnify" viewBox="0 0 375 374.999991" height="500" preserveAspectRatio="xMidYMid meet" version="1.0"><defs><clipPath id="e9829d9980"><path d="M 112.5 112.636719 L 262.5 112.636719 L 262.5 262.636719 L 112.5 262.636719 Z M 112.5 112.636719 " clip-rule="nonzero"/></clipPath></defs><g clip-path="url(#e9829d9980)"><path fill="#000000" d="M 261.492188 258.351562 C 262.464844 259.328125 262.464844 260.910156 261.492188 261.882812 C 261.003906 262.371094 260.367188 262.617188 259.730469 262.617188 C 259.089844 262.617188 258.453125 262.371094 257.964844 261.882812 L 187.488281 191.273438 L 117.011719 261.882812 C 116.527344 262.371094 115.886719 262.617188 115.25 262.617188 C 114.613281 262.617188 113.972656 262.371094 113.488281 261.882812 C 112.511719 260.910156 112.511719 259.328125 113.488281 258.351562 L 183.964844 187.742188 L 113.488281 117.132812 C 112.511719 116.15625 112.511719 114.578125 113.488281 113.601562 C 114.460938 112.625 116.039062 112.625 117.011719 113.601562 L 187.488281 184.210938 L 257.964844 113.601562 C 258.941406 112.625 260.519531 112.625 261.492188 113.601562 C 262.464844 114.578125 262.464844 116.15625 261.492188 117.132812 L 191.015625 187.742188 Z M 261.492188 258.351562 " fill-opacity="1" fill-rule="nonzero"/></g></svg>