<svg xmlns="http://www.w3.org/2000/svg" xmlns:xlink="http://www.w3.org/1999/xlink" width="500" zoomAndPan="magnify" viewBox="0 0 375 374.999991" height="500" preserveAspectRatio="xMidYMid meet" version="1.0"><defs><clipPath id="4805fa171f"><path d="M 170 176 L 260 176 L 260 262.5 L 170 262.5 Z M 170 176 " clip-rule="nonzero"/></clipPath><clipPath id="3f477999b0"><path d="M 114.5625 112.5 L 146 112.5 L 146 146 L 114.5625 146 Z M 114.5625 112.5 " clip-rule="nonzero"/></clipPath></defs><g clip-path="url(#4805fa171f)"><path fill="#000000" d="M 256.039062 262.5 C 254.535156 262.46875 253.421875 261.871094 252.429688 261.058594 C 251.226562 260.070312 250.050781 259.050781 248.910156 258 C 238.984375 248.878906 229.058594 239.789062 219.191406 230.609375 C 204.246094 216.660156 189.386719 202.648438 174.5 188.671875 C 173.445312 187.679688 172.453125 186.628906 171.402344 185.640625 C 171.191406 185.429688 170.917969 185.308594 170.648438 185.191406 C 170.136719 185.011719 169.925781 184.558594 170.316406 184.140625 C 170.589844 183.839844 170.917969 183.539062 171.28125 183.390625 C 174.167969 182.039062 176.242188 179.851562 177.898438 177.210938 C 178.046875 177 178.167969 176.761719 178.347656 176.578125 C 178.621094 176.339844 178.890625 175.589844 179.28125 176.488281 C 184.453125 180.269531 188.636719 185.160156 193.175781 189.601562 C 197.75 194.039062 202.140625 198.660156 206.589844 203.191406 C 221.78125 218.609375 236.96875 234.058594 252.1875 249.480469 C 253.84375 251.160156 255.554688 252.78125 257.179688 254.519531 C 257.902344 255.269531 258.472656 256.140625 259.074219 257.011719 C 260.699219 259.351562 258.894531 261.871094 256.730469 262.410156 C 256.429688 262.46875 256.15625 262.46875 256.039062 262.5 Z M 177.597656 180.570312 C 204.214844 206.699219 230.804688 232.859375 257.421875 259.019531 C 257.480469 258.988281 257.542969 258.960938 257.601562 258.898438 C 257.300781 258.359375 257 257.789062 256.667969 257.25 C 256.398438 256.859375 255.949219 256.53125 255.828125 256.109375 C 255.554688 255.300781 254.984375 254.761719 254.414062 254.191406 C 238.59375 238.109375 222.742188 222.058594 206.921875 205.980469 C 198.351562 197.25 189.867188 188.460938 181.386719 179.699219 C 180.605469 178.890625 179.882812 178.019531 179.160156 177.238281 C 178.621094 178.378906 178.109375 179.488281 177.597656 180.570312 Z M 184.605469 194.730469 C 184.574219 194.761719 184.574219 194.789062 184.542969 194.820312 C 184.726562 194.96875 184.90625 195.148438 185.117188 195.238281 C 185.777344 195.539062 186.410156 195.839844 187.101562 196.109375 C 188.515625 196.648438 189.988281 196.949219 191.523438 196.949219 C 191.734375 196.949219 191.945312 196.800781 192.152344 196.710938 C 192.125 196.679688 192.09375 196.621094 192.0625 196.589844 C 189.566406 195.960938 187.101562 195.359375 184.605469 194.730469 Z M 197.628906 201.601562 C 197.628906 201.539062 197.628906 201.480469 197.628906 201.421875 C 195.25 201.089844 192.847656 200.789062 190.5 200.460938 C 192.785156 201.511719 195.160156 201.898438 197.628906 201.601562 Z M 185.535156 190.710938 C 185.535156 190.648438 185.507812 190.558594 185.507812 190.5 C 185.417969 190.441406 185.328125 190.378906 185.234375 190.351562 C 183.882812 190.109375 182.527344 189.839844 181.175781 189.628906 C 180.996094 189.601562 180.785156 189.691406 180.574219 189.691406 C 180.726562 189.839844 180.84375 190.109375 180.996094 190.140625 C 182.257812 190.410156 183.523438 190.648438 184.785156 190.859375 C 184.996094 190.921875 185.265625 190.769531 185.535156 190.710938 Z M 197.148438 205.019531 C 197.65625 205.738281 199.761719 206.191406 200.363281 205.828125 C 200.457031 205.769531 200.546875 205.621094 200.546875 205.53125 C 200.546875 205.441406 200.425781 205.289062 200.335938 205.261719 C 200.035156 205.171875 199.734375 205.078125 199.433594 205.050781 C 198.710938 205.019531 197.957031 205.019531 197.148438 205.019531 Z M 197.148438 205.019531 " fill-opacity="1" fill-rule="nonzero"/></g><path fill="#000000" d="M 121.050781 138.539062 C 121.082031 138.660156 121.113281 138.808594 121.171875 138.898438 C 124.601562 143.761719 128.992188 147.328125 134.886719 148.710938 C 136.179688 149.011719 137.535156 149.039062 138.855469 149.21875 C 139.457031 147.691406 140.480469 146.640625 141.714844 145.769531 C 142.375 145.320312 143.066406 144.839844 143.941406 145.199219 C 145.234375 144.660156 145.925781 145.738281 146.707031 146.339844 C 149.773438 148.769531 152.753906 151.320312 155.820312 153.78125 C 162.828125 159.421875 169.355469 165.570312 175.972656 171.660156 C 176.484375 172.109375 176.933594 172.621094 177.355469 173.128906 C 177.867188 173.730469 177.898438 174.390625 177.476562 174.78125 C 177.054688 175.199219 176.363281 175.109375 175.761719 174.539062 C 174.527344 173.339844 173.386719 172.019531 172.121094 170.851562 C 166.890625 166.078125 161.65625 161.308594 156.390625 156.601562 C 152.601562 153.210938 148.78125 149.878906 144.964844 146.519531 C 144.664062 146.25 144.363281 145.949219 144.0625 145.679688 C 142.496094 146.699219 141.203125 148.109375 140.242188 149.851562 C 149.867188 160.828125 159.28125 171.988281 170.136719 181.980469 C 172.664062 180.421875 174.828125 178.199219 177.175781 175.859375 C 177.117188 176.160156 177.144531 176.339844 177.054688 176.488281 C 176.84375 176.910156 176.695312 177.359375 176.394531 177.691406 C 175.070312 179.191406 173.746094 180.71875 172.273438 182.101562 C 171.492188 182.820312 170.4375 183.269531 169.476562 183.75 C 169.207031 183.871094 168.695312 183.78125 168.421875 183.601562 C 167.851562 183.210938 167.308594 182.761719 166.828125 182.25 C 160.574219 175.890625 154.738281 169.171875 149.082031 162.269531 C 145.984375 158.398438 142.949219 154.46875 139.851562 150.539062 C 139.339844 149.910156 138.917969 149.761719 138.164062 149.941406 C 132.75 151.261719 127.820312 150.328125 123.457031 146.789062 C 123.066406 146.488281 122.585938 146.191406 122.617188 145.378906 C 125.140625 147.179688 127.730469 148.589844 130.675781 149.128906 C 130.074219 148.859375 129.441406 148.589844 128.839844 148.289062 C 125.113281 146.519531 122.375 143.699219 120.390625 140.128906 C 120.148438 139.710938 119.96875 139.199219 119.910156 138.71875 C 119.820312 137.96875 120.121094 137.789062 120.8125 138.121094 C 120.871094 138.238281 120.960938 138.390625 121.050781 138.539062 Z M 121.050781 138.539062 " fill-opacity="1" fill-rule="nonzero"/><g clip-path="url(#3f477999b0)"><path fill="#000000" d="M 121.050781 138.539062 C 120.960938 138.390625 120.871094 138.269531 120.78125 138.121094 C 120.179688 137.25 119.609375 136.320312 118.945312 135.480469 C 116.089844 131.820312 114.675781 127.679688 114.914062 123.03125 C 114.914062 122.851562 114.976562 122.640625 115.007812 122.460938 C 115.007812 122.398438 115.066406 122.371094 115.214844 122.191406 C 115.699219 125.101562 116.359375 127.859375 117.621094 130.441406 C 117.59375 129.75 117.5625 129.058594 117.503906 128.398438 C 117.382812 126.75 117.171875 125.101562 117.113281 123.449219 C 117.050781 122.398438 117.113281 121.351562 117.261719 120.328125 C 117.441406 118.890625 117.742188 117.449219 118.042969 116.011719 C 118.285156 114.808594 118.886719 113.820312 119.726562 112.921875 C 119.847656 112.800781 119.96875 112.648438 120.121094 112.589844 C 120.269531 112.53125 120.449219 112.53125 120.601562 112.5 C 120.628906 112.648438 120.691406 112.828125 120.660156 112.980469 C 120.480469 113.789062 120.148438 114.570312 120.089844 115.410156 C 120.058594 116.160156 120.089844 117.058594 120.480469 117.660156 C 123.367188 122.160156 127.246094 125.339844 132.722656 126.238281 C 133.382812 126.359375 134.046875 126.511719 134.828125 126.660156 C 132.691406 124.738281 130.136719 123.601562 128.332031 121.5 C 129.050781 121.921875 129.804688 122.308594 130.496094 122.761719 C 132.75 124.109375 135.128906 125.308594 137.234375 126.839844 C 140.8125 129.421875 143.550781 132.78125 145.054688 136.980469 C 145.714844 138.839844 146.046875 140.789062 145.65625 142.769531 C 145.535156 143.28125 145.292969 143.789062 145.054688 144.269531 C 145.023438 144.359375 144.753906 144.449219 144.664062 144.390625 C 144.570312 144.359375 144.480469 144.121094 144.511719 144 C 145.445312 139.289062 143.367188 135.660156 140.390625 132.300781 C 138.464844 130.140625 135.910156 129.179688 133.292969 128.25 C 132.359375 127.921875 131.367188 127.648438 130.253906 127.320312 C 130.464844 127.558594 130.617188 127.710938 130.707031 127.859375 C 130.796875 128.070312 130.796875 128.308594 130.855469 128.519531 C 130.617188 128.519531 130.40625 128.550781 130.164062 128.519531 C 130.015625 128.488281 129.894531 128.398438 129.773438 128.308594 C 127.757812 126.898438 125.53125 125.820312 123.820312 124.050781 C 123.667969 123.898438 123.425781 123.78125 123.128906 123.75 C 123.21875 124.019531 123.335938 124.289062 123.398438 124.589844 C 123.519531 125.128906 123.699219 125.640625 123.699219 126.179688 C 123.726562 127.019531 122.976562 127.441406 122.316406 126.988281 C 121.832031 126.660156 121.472656 126.148438 121.050781 125.671875 C 120.75 125.308594 120.480469 124.949219 120.089844 124.441406 C 119.609375 125.488281 119.699219 126.390625 119.789062 127.289062 C 120.058594 129.988281 121.472656 132.179688 122.945312 134.339844 C 123.425781 135.058594 124 135.75 124.480469 136.46875 C 124.628906 136.710938 124.601562 137.039062 124.660156 137.339844 C 124.359375 137.28125 123.96875 137.28125 123.789062 137.101562 C 122.585938 135.839844 121.441406 134.519531 120.300781 133.199219 C 120.121094 133.019531 120 132.78125 119.820312 132.601562 C 121.863281 138.359375 126.074219 142.230469 131.097656 145.5 C 130.855469 145.441406 130.644531 145.410156 130.40625 145.320312 C 128.691406 144.75 127.128906 143.941406 125.742188 142.800781 C 124.148438 141.421875 122.617188 139.949219 121.050781 138.539062 Z M 121.050781 138.539062 " fill-opacity="1" fill-rule="nonzero"/></g><path fill="#000000" d="M 145.746094 151.921875 C 145.894531 152.101562 146.015625 152.28125 146.167969 152.460938 C 151.308594 157.859375 156.484375 163.261719 161.625 168.660156 C 162.257812 169.320312 162.949219 169.921875 163.609375 170.578125 C 164.511719 171.449219 165.597656 171.898438 166.828125 172.050781 C 167.339844 172.109375 167.851562 172.230469 168.363281 172.351562 C 168.753906 172.46875 169.234375 172.589844 169.175781 173.128906 C 169.085938 173.699219 168.605469 173.730469 168.152344 173.730469 C 166.679688 173.761719 165.355469 173.308594 164.273438 172.261719 C 162.167969 170.191406 160 168.148438 158.015625 165.988281 C 154.195312 161.878906 150.46875 157.710938 146.738281 153.539062 C 146.375 153.148438 146.074219 152.671875 145.746094 152.25 C 145.683594 152.191406 145.65625 152.101562 145.625 152.039062 C 145.683594 152.011719 145.714844 151.980469 145.746094 151.921875 Z M 145.746094 151.921875 " fill-opacity="1" fill-rule="nonzero"/><path fill="#000000" d="M 138.617188 141.75 C 136.058594 138.628906 132.902344 136.171875 129.714844 133.710938 C 129.171875 133.289062 128.570312 132.898438 128.03125 132.449219 C 127.910156 132.359375 127.910156 132.121094 127.847656 131.96875 C 128 131.941406 128.179688 131.851562 128.332031 131.910156 C 128.601562 132 128.871094 132.121094 129.113281 132.269531 C 132.722656 134.460938 135.730469 137.28125 138.195312 140.699219 C 138.40625 141 138.585938 141.359375 138.765625 141.691406 C 138.707031 141.691406 138.648438 141.71875 138.617188 141.75 Z M 138.617188 141.75 " fill-opacity="1" fill-rule="nonzero"/><path fill="#000000" d="M 141.472656 139.890625 C 139.367188 136.140625 136.210938 133.410156 133.023438 130.679688 C 132.75 130.441406 132.480469 130.230469 132.242188 129.960938 C 132.148438 129.871094 132.148438 129.628906 132.210938 129.570312 C 132.269531 129.480469 132.480469 129.449219 132.601562 129.511719 C 132.8125 129.570312 133.050781 129.691406 133.234375 129.839844 C 136.601562 132.089844 139.25 134.96875 140.992188 138.628906 C 141.171875 139.050781 141.324219 139.46875 141.472656 139.890625 Z M 141.472656 139.890625 " fill-opacity="1" fill-rule="nonzero"/><path fill="#000000" d="M 134.4375 143.398438 C 134.347656 143.371094 134.253906 143.339844 134.164062 143.28125 C 132.300781 141.898438 130.464844 140.488281 128.601562 139.109375 C 128.390625 138.929688 128.148438 138.75 127.96875 138.539062 C 127.878906 138.421875 127.820312 138.148438 127.878906 138.089844 C 128 137.96875 128.210938 137.941406 128.390625 137.941406 C 128.511719 137.941406 128.632812 138.03125 128.75 138.121094 C 130.738281 139.410156 132.570312 140.878906 134.105469 142.710938 C 134.253906 142.890625 134.375 143.101562 134.496094 143.308594 C 134.527344 143.339844 134.464844 143.371094 134.4375 143.398438 Z M 134.4375 143.398438 " fill-opacity="1" fill-rule="nonzero"/><path fill="#000000" d="M 169.265625 174.929688 C 169.867188 174.929688 170.5 174.898438 171.101562 174.960938 C 171.308594 174.988281 171.519531 175.171875 171.730469 175.289062 C 171.582031 175.46875 171.460938 175.738281 171.25 175.828125 C 169.957031 176.339844 168.632812 176.339844 167.371094 175.800781 C 167.128906 175.710938 166.980469 175.410156 166.800781 175.199219 C 167.039062 175.109375 167.25 174.988281 167.492188 174.988281 C 168.09375 174.898438 168.664062 174.929688 169.265625 174.929688 Z M 169.265625 174.929688 " fill-opacity="1" fill-rule="nonzero"/><path fill="#000000" d="M 170.648438 178.648438 C 170.199219 178.351562 169.566406 178.171875 169.476562 177.871094 C 169.324219 177.210938 170.015625 177.179688 170.5 177.058594 C 171.101562 176.910156 171.703125 176.789062 172.304688 176.730469 C 172.511719 176.699219 172.90625 176.851562 172.933594 176.96875 C 172.996094 177.179688 172.875 177.601562 172.722656 177.691406 C 172.09375 178.019531 171.429688 178.289062 170.648438 178.648438 Z M 170.648438 178.648438 " fill-opacity="1" fill-rule="nonzero"/></svg>