<svg xmlns="http://www.w3.org/2000/svg" xmlns:xlink="http://www.w3.org/1999/xlink" width="1920" zoomAndPan="magnify" viewBox="0 0 1440 749.999995" height="1000" preserveAspectRatio="xMidYMid meet" version="1.0"><defs><clipPath id="0e6ca60dbb"><path d="M 0 30.496094 L 754.5 30.496094 L 754.5 719.746094 L 0 719.746094 Z M 0 30.496094 " clip-rule="nonzero"/></clipPath><clipPath id="8360692bd6"><path d="M 685.613281 30.496094 L 1440 30.496094 L 1440 719.746094 L 685.613281 719.746094 Z M 685.613281 30.496094 " clip-rule="nonzero"/></clipPath></defs><rect x="-144" width="1728" fill="#ffffff" y="-74.999999" height="899.999994" fill-opacity="1"/><rect x="-144" width="1728" fill="#ffffff" y="-74.999999" height="899.999994" fill-opacity="1"/><g clip-path="url(#0e6ca60dbb)"><path fill="#f5dae7" d="M 493.25 96.597656 C 494.304688 98.371094 496.21875 99.457031 498.285156 99.457031 C 500.347656 99.457031 502.261719 98.371094 503.316406 96.597656 C 526.855469 57.03125 570.039062 30.496094 619.371094 30.496094 C 693.851562 30.496094 754.3125 90.960938 754.3125 165.4375 C 754.3125 165.4375 754.3125 584.5625 754.3125 584.5625 C 754.3125 659.039062 693.851562 719.5 619.371094 719.5 C 570.039062 719.5 526.855469 692.964844 503.316406 653.40625 C 502.261719 651.632812 500.347656 650.542969 498.285156 650.542969 C 496.21875 650.542969 494.304688 651.632812 493.25 653.40625 C 469.710938 692.964844 426.527344 719.5 377.191406 719.5 C 327.855469 719.5 284.671875 692.964844 261.132812 653.40625 C 260.078125 651.632812 258.164062 650.542969 256.101562 650.542969 C 254.035156 650.542969 252.125 651.632812 251.066406 653.40625 C 227.53125 692.964844 184.34375 719.5 135.011719 719.5 C 60.535156 719.5 0.0703125 659.039062 0.0703125 584.5625 C 0.0703125 584.5625 0.0703125 165.4375 0.0703125 165.4375 C 0.0703125 90.960938 60.535156 30.496094 135.011719 30.496094 C 184.34375 30.496094 227.53125 57.03125 251.066406 96.597656 C 252.125 98.371094 254.035156 99.457031 256.101562 99.457031 C 258.164062 99.457031 260.078125 98.371094 261.132812 96.597656 C 284.671875 57.03125 327.855469 30.496094 377.191406 30.496094 C 426.527344 30.496094 469.710938 57.03125 493.25 96.597656 Z M 493.25 96.597656 " fill-opacity="1" fill-rule="evenodd"/></g><g clip-path="url(#8360692bd6)"><path fill="#f5dae7" d="M 1178.863281 96.597656 C 1179.917969 98.371094 1181.832031 99.457031 1183.898438 99.457031 C 1185.960938 99.457031 1187.875 98.371094 1188.929688 96.597656 C 1212.472656 57.03125 1255.652344 30.496094 1304.988281 30.496094 C 1379.464844 30.496094 1439.925781 90.960938 1439.925781 165.4375 C 1439.925781 165.4375 1439.925781 584.5625 1439.925781 584.5625 C 1439.925781 659.039062 1379.464844 719.5 1304.988281 719.5 C 1255.652344 719.5 1212.472656 692.964844 1188.929688 653.40625 C 1187.875 651.632812 1185.960938 650.542969 1183.898438 650.542969 C 1181.832031 650.542969 1179.917969 651.632812 1178.863281 653.40625 C 1155.328125 692.964844 1112.140625 719.5 1062.808594 719.5 C 1013.472656 719.5 970.289062 692.964844 946.75 653.40625 C 945.691406 651.632812 943.78125 650.542969 941.714844 650.542969 C 939.652344 650.542969 937.738281 651.632812 936.683594 653.40625 C 913.144531 692.964844 869.960938 719.5 820.625 719.5 C 746.148438 719.5 685.6875 659.039062 685.6875 584.5625 C 685.6875 584.5625 685.6875 165.4375 685.6875 165.4375 C 685.6875 90.960938 746.148438 30.496094 820.625 30.496094 C 869.960938 30.496094 913.144531 57.03125 936.683594 96.597656 C 937.738281 98.371094 939.652344 99.457031 941.714844 99.457031 C 943.78125 99.457031 945.691406 98.371094 946.75 96.597656 C 970.289062 57.03125 1013.472656 30.496094 1062.808594 30.496094 C 1112.140625 30.496094 1155.328125 57.03125 1178.863281 96.597656 Z M 1178.863281 96.597656 " fill-opacity="1" fill-rule="evenodd"/></g></svg>